<svg xmlns="http://www.w3.org/2000/svg" viewBox="0 0 493.36 219.25" width="20" height="20"><defs><style>.cls-1{fill:#fff}</style></defs><title>Asset 1</title><g id="Layer_2" data-name="Layer 2"><path class="cls-1" d="M490.5 102.23L380.87 2.3a9.17 9.17 0 0 0-10-1.43 8.29 8.29 0 0 0-5.43 8.28v64H9.14A8.79 8.79 0 0 0 0 82.24v54.82a8.79 8.79 0 0 0 9.14 9.13h356.31v64c0 3.81 1.82 6.57 5.43 8.28a8.91 8.91 0 0 0 10-1.71L490.5 115.63a9.33 9.33 0 0 0 2.85-6.85 9 9 0 0 0-2.85-6.55z" id="Capa_1" data-name="Capa 1"/></g></svg>