<svg xmlns="http://www.w3.org/2000/svg" viewBox="0 0 219.3 493.36" width="20" height="20"><defs><style>.cls-1{fill:#fff}</style></defs><title>Asset 1</title><g id="Layer_2" data-name="Layer 2"><path class="cls-1" d="M218.43 370.87a8.29 8.29 0 0 0-8.29-5.43h-64V9.14A8.79 8.79 0 0 0 137.06 0H82.24a8.79 8.79 0 0 0-9.14 9.14v356.31h-64q-5.71 0-8.28 5.43a9.18 9.18 0 0 0 1.43 10l101.4 109.63a9.35 9.35 0 0 0 6.85 2.85 9 9 0 0 0 6.57-2.85L217 380.87a9.18 9.18 0 0 0 1.43-10z" id="Capa_1" data-name="Capa 1"/></g></svg>