<svg xmlns="http://www.w3.org/2000/svg" viewBox="0 0 49.3 111.58" width="25" height="25"><defs><style>.cls-1{fill:#143e6e}</style></defs><title>Asset 1</title><g id="Layer_2" data-name="Layer 2"><path class="cls-1" d="M47.82 99.54l-1.56 6.37q-7 2.77-11.19 4.22a29.53 29.53 0 0 1-9.71 1.45q-8.49 0-13.21-4.14a13.41 13.41 0 0 1-4.71-10.53 37.22 37.22 0 0 1 .35-5.06q.36-2.59 1.14-5.85l5.85-20.69q.78-3 1.32-5.63a24.48 24.48 0 0 0 .53-4.85c0-2.64-.55-4.49-1.64-5.53s-3.17-1.56-6.25-1.56a16.38 16.38 0 0 0-4.65.71c-1.59.47-2.95.92-4.09 1.35l1.56-6.38q5.74-2.34 11-4a32.87 32.87 0 0 1 9.94-1.67q8.43 0 13 4.08a13.53 13.53 0 0 1 4.57 10.59c0 .9-.1 2.48-.32 4.75a31.75 31.75 0 0 1-1.17 6.24L32.76 84a54.73 54.73 0 0 0-1.28 5.68 29.22 29.22 0 0 0-.57 4.82q0 4.1 1.83 5.6t6.37 1.49a18.38 18.38 0 0 0 4.81-.74 26.92 26.92 0 0 0 3.9-1.31zM49.3 13a12.06 12.06 0 0 1-4.07 9.18 13.86 13.86 0 0 1-9.8 3.8 14 14 0 0 1-9.85-3.8A12 12 0 0 1 21.46 13a12.15 12.15 0 0 1 4.11-9.21A14 14 0 0 1 35.42 0a13.82 13.82 0 0 1 9.8 3.82A12.17 12.17 0 0 1 49.3 13z" id="Capa_1" data-name="Capa 1"/></g></svg>