<svg xmlns="http://www.w3.org/2000/svg" viewBox="0 0 272.41 90" width="185" height="61"><defs><style>.cls-1{fill:#9fdad0;}.cls-2{fill:#86bfdb;}.cls-3{fill:#64b3cb;}.cls-4{fill:#363c3f;}</style></defs><title>Asset 3</title><g id="Layer_2" data-name="Layer 2"><g id="Layer_1-2" data-name="Layer 1"><g id="_Group_" data-name="&lt;Group&gt;"><g id="_Group_2" data-name="&lt;Group&gt;"><path id="_Path_" data-name="&lt;Path&gt;" class="cls-1" d="M72,27H63V45A18,18,0,0,1,45,63H27v9a18,18,0,0,0,36,0h0V63h9a18,18,0,1,0,0-36Z"/><path id="_Path_2" data-name="&lt;Path&gt;" class="cls-2" d="M45,27H63V18a18,18,0,1,0-36,0h0v9H18a18,18,0,1,0,0,36h9V45A18,18,0,0,1,45,27Z"/><path id="_Path_3" data-name="&lt;Path&gt;" class="cls-3" d="M63,45V27H45A18,18,0,0,0,27,45V63H45A18,18,0,0,0,63,45Z"/></g><g id="_Group_3" data-name="&lt;Group&gt;"><path id="_Compound_Path_" data-name="&lt;Compound Path&gt;" class="cls-4" d="M228.31,74.45a4.5,4.5,0,0,0,0,9,4.5,4.5,0,0,0,0-9Zm0,8.29a3.81,3.81,0,1,1,3.6-3.8A3.65,3.65,0,0,1,228.31,82.74Z"/><path id="_Compound_Path_2" data-name="&lt;Compound Path&gt;" class="cls-4" d="M228.94,79.1v0a1.27,1.27,0,0,0,1-1.22,1.21,1.21,0,0,0-.48-1.05,2.83,2.83,0,0,0-1.56-.37,8.19,8.19,0,0,0-1.43.1v5h.82V79.37h.54a1,1,0,0,1,1.09.88,3.42,3.42,0,0,0,.34,1.29h.85a5,5,0,0,1-.31-1.22C229.69,79.58,229.38,79.17,228.94,79.1Zm-1.09-.34h-.58v-1.7c.14,0,.31,0,.58,0,.92,0,1.22.44,1.22.88C229.07,78.52,228.5,78.76,227.85,78.76Z"/><path id="_Compound_Path_3" data-name="&lt;Compound Path&gt;" class="cls-4" d="M125.32,6.8H112.24V41.89h6.92V30.36h6.16A11.67,11.67,0,0,0,133.84,27a11.3,11.3,0,0,0,3.46-8.37,11.3,11.3,0,0,0-3.46-8.37A11.67,11.67,0,0,0,125.32,6.8ZM129,22.36a4.84,4.84,0,0,1-3.66,1.53h-6.16V13.27h6.16a4.88,4.88,0,0,1,3.66,1.5,5.26,5.26,0,0,1,1.45,3.81A5.28,5.28,0,0,1,129,22.36Z"/><path id="_Compound_Path_4" data-name="&lt;Compound Path&gt;" class="cls-4" d="M150.73,42.59a9.84,9.84,0,0,0,8.17-3.66v3h6.47V16.83H158.9v3a9.84,9.84,0,0,0-8.17-3.66,11.35,11.35,0,0,0-8.6,3.83,13.25,13.25,0,0,0-3.58,9.4,13.25,13.25,0,0,0,3.58,9.4A11.35,11.35,0,0,0,150.73,42.59ZM147,24.27a6.68,6.68,0,0,1,5-2,6.76,6.76,0,0,1,5,2,6.89,6.89,0,0,1,2,5.09,6.89,6.89,0,0,1-2,5.09,6.76,6.76,0,0,1-5,2,6.67,6.67,0,0,1-5-2,6.93,6.93,0,0,1-2-5.09A6.94,6.94,0,0,1,147,24.27Z"/><path id="_Path_4" data-name="&lt;Path&gt;" class="cls-4" d="M173.44,33.47q0,5.16,2.73,7.17t9.4,1.25V36a27.82,27.82,0,0,1-3.11,0,3,3,0,0,1-1.9-.68,2.48,2.48,0,0,1-.65-1.9V23h5.66V16.83H179.9v-7l-6.47,2v5.06h-4.36V23h4.36Z"/><path id="_Path_5" data-name="&lt;Path&gt;" class="cls-4" d="M192.42,14.77a3.86,3.86,0,0,0,2.83-1.18,3.8,3.8,0,0,0,1.18-2.78A3.89,3.89,0,0,0,195.25,8a3.82,3.82,0,0,0-2.83-1.2A3.76,3.76,0,0,0,189.64,8a3.89,3.89,0,0,0-1.18,2.81,3.8,3.8,0,0,0,1.18,2.78A3.8,3.8,0,0,0,192.42,14.77Z"/><rect id="_Path_6" data-name="&lt;Path&gt;" class="cls-4" x="189.21" y="16.83" width="6.47" height="25.06"/><path id="_Compound_Path_5" data-name="&lt;Compound Path&gt;" class="cls-4" d="M218.78,34.22a6.61,6.61,0,0,1-5.61,2.51q-5.76,0-7.07-4.71H225a15.17,15.17,0,0,0,.25-2.66,13.23,13.23,0,0,0-3.58-9.42,12,12,0,0,0-9.1-3.81A12.76,12.76,0,0,0,203,19.91a13,13,0,0,0-3.71,9.45,12.84,12.84,0,0,0,3.76,9.47,13.48,13.48,0,0,0,10,3.76q7.22,0,10.93-5.36Zm-10.53-11a6.81,6.81,0,0,1,4.31-1.33,6.54,6.54,0,0,1,3.93,1.25A6.06,6.06,0,0,1,218.78,27H206A6.35,6.35,0,0,1,208.26,23.27Z"/><path id="_Path_7" data-name="&lt;Path&gt;" class="cls-4" d="M242.79,16.12q-5.11,0-7.47,3.51V16.83h-6.47V41.89h6.47V28.35a6.47,6.47,0,0,1,1.5-4.66,5.32,5.32,0,0,1,4-1.55,4.93,4.93,0,0,1,3.61,1.33,5.13,5.13,0,0,1,1.35,3.83V41.89h6.47V26.5a10.47,10.47,0,0,0-2.68-7.62A9.07,9.07,0,0,0,242.79,16.12Z"/><path id="_Path_8" data-name="&lt;Path&gt;" class="cls-4" d="M272.41,23V16.83h-5.66v-7l-6.47,2v5.06h-4.36V23h4.36V33.47q0,5.16,2.73,7.17t9.4,1.25V36a27.83,27.83,0,0,1-3.11,0,3,3,0,0,1-1.9-.68,2.48,2.48,0,0,1-.65-1.9V23Z"/><path id="_Compound_Path_6" data-name="&lt;Compound Path&gt;" class="cls-4" d="M125.32,48.36H112.24V83.45h6.92V71.92h6.16a11.67,11.67,0,0,0,8.52-3.41,11.86,11.86,0,0,0,0-16.74A11.67,11.67,0,0,0,125.32,48.36ZM129,63.93a4.84,4.84,0,0,1-3.66,1.53h-6.16V54.83h6.16a4.88,4.88,0,0,1,3.66,1.5,5.69,5.69,0,0,1,0,7.59Z"/><path id="_Path_9" data-name="&lt;Path&gt;" class="cls-4" d="M147.43,62.7V58.39H141V83.45h6.47v-12q0-3.61,2.33-5.16A7.62,7.62,0,0,1,155,65.1V57.89a9.09,9.09,0,0,0-4.64,1.2A6.75,6.75,0,0,0,147.43,62.7Z"/><rect id="_Path_10" data-name="&lt;Path&gt;" class="cls-4" x="158.8" y="58.39" width="6.47" height="25.06"/><path id="_Path_11" data-name="&lt;Path&gt;" class="cls-4" d="M162,48.36a3.76,3.76,0,0,0-2.78,1.2,3.89,3.89,0,0,0-1.18,2.81,4,4,0,0,0,4,4,3.86,3.86,0,0,0,2.83-1.18A3.8,3.8,0,0,0,166,52.37a3.89,3.89,0,0,0-1.18-2.81A3.82,3.82,0,0,0,162,48.36Z"/><path id="_Path_12" data-name="&lt;Path&gt;" class="cls-4" d="M186.54,76.86a6.88,6.88,0,0,1-3.48.88,6.47,6.47,0,0,1-4.81-1.93,6.66,6.66,0,0,1-1.9-4.89,6.73,6.73,0,0,1,1.9-4.94,6.48,6.48,0,0,1,4.81-1.93,6.63,6.63,0,0,1,3.43.9,5.67,5.67,0,0,1,2.28,2.46l5.56-3.26a11.67,11.67,0,0,0-4.56-4.71,13,13,0,0,0-6.67-1.75,13,13,0,0,0-13.23,13.23,13.26,13.26,0,0,0,19.9,11.45,12.55,12.55,0,0,0,4.66-4.74l-5.61-3.21A5.52,5.52,0,0,1,186.54,76.86Z"/><path id="_Compound_Path_7" data-name="&lt;Compound Path&gt;" class="cls-4" d="M209.55,57.69A12.76,12.76,0,0,0,200,61.47a13,13,0,0,0-3.71,9.45,12.84,12.84,0,0,0,3.76,9.47,13.48,13.48,0,0,0,10,3.76q7.22,0,10.93-5.36l-5.21-3a6.61,6.61,0,0,1-5.61,2.51q-5.76,0-7.07-4.71H222a15.16,15.16,0,0,0,.25-2.66,13.23,13.23,0,0,0-3.58-9.42A12,12,0,0,0,209.55,57.69ZM203,68.56a6.35,6.35,0,0,1,2.26-3.73,6.8,6.8,0,0,1,4.31-1.33,6.54,6.54,0,0,1,3.93,1.25,6.06,6.06,0,0,1,2.28,3.81Z"/></g></g></g></g></svg>